<svg width="468" height="90" viewBox="0 0 468 90" fill="none" xmlns="http://www.w3.org/2000/svg">
<path d="M152.113 59.5703C152.113 57.5781 151.41 56.0547 150.004 55C148.598 53.9219 146.066 52.7969 142.41 51.625C138.754 50.4297 135.859 49.2578 133.727 48.1094C127.914 44.9688 125.008 40.7383 125.008 35.418C125.008 32.6523 125.781 30.1914 127.328 28.0352C128.898 25.8555 131.137 24.1563 134.043 22.9375C136.973 21.7187 140.254 21.1094 143.887 21.1094C147.543 21.1094 150.801 21.7773 153.66 23.1133C156.52 24.4258 158.734 26.2891 160.305 28.7031C161.898 31.1172 162.695 33.8594 162.695 36.9297H152.148C152.148 34.5859 151.41 32.7695 149.934 31.4805C148.457 30.168 146.383 29.5117 143.711 29.5117C141.133 29.5117 139.129 30.0625 137.699 31.1641C136.27 32.2422 135.555 33.6719 135.555 35.4531C135.555 37.1172 136.387 38.5117 138.051 39.6367C139.738 40.7617 142.211 41.8164 145.469 42.8008C151.469 44.6055 155.84 46.8438 158.582 49.5156C161.324 52.1875 162.695 55.5156 162.695 59.5C162.695 63.9297 161.02 67.4102 157.668 69.9414C154.316 72.4492 149.805 73.7031 144.133 73.7031C140.195 73.7031 136.609 72.9883 133.375 71.5586C130.141 70.1055 127.668 68.125 125.957 65.6172C124.27 63.1094 123.426 60.2031 123.426 56.8984H134.008C134.008 62.5469 137.383 65.3711 144.133 65.3711C146.641 65.3711 148.598 64.8672 150.004 63.8594C151.41 62.8281 152.113 61.3984 152.113 59.5703ZM208.609 21.8125V55.5273C208.609 61.1289 206.852 65.5586 203.336 68.8164C199.844 72.0742 195.062 73.7031 188.992 73.7031C183.016 73.7031 178.27 72.1211 174.754 68.957C171.238 65.793 169.445 61.4453 169.375 55.9141V21.8125H179.922V55.5977C179.922 58.9492 180.719 61.3984 182.312 62.9453C183.93 64.4688 186.156 65.2305 188.992 65.2305C194.922 65.2305 197.934 62.1133 198.027 55.8789V21.8125H208.609ZM227.805 54.9648V73H217.258V21.8125H237.227C241.07 21.8125 244.445 22.5156 247.352 23.9219C250.281 25.3281 252.531 27.332 254.102 29.9336C255.672 32.5117 256.457 35.4531 256.457 38.7578C256.457 43.7734 254.734 47.7344 251.289 50.6406C247.867 53.5234 243.121 54.9648 237.051 54.9648H227.805ZM227.805 46.4219H237.227C240.016 46.4219 242.137 45.7656 243.59 44.4531C245.066 43.1406 245.805 41.2656 245.805 38.8281C245.805 36.3203 245.066 34.293 243.59 32.7461C242.113 31.1992 240.074 30.4023 237.473 30.3555H227.805V46.4219ZM294.531 50.8164H274.281V64.5273H298.047V73H263.734V21.8125H297.977V30.3555H274.281V42.5547H294.531V50.8164ZM323.184 54.2617H314.781V73H304.234V21.8125H323.254C329.301 21.8125 333.965 23.1602 337.246 25.8555C340.527 28.5508 342.168 32.3594 342.168 37.2812C342.168 40.7734 341.406 43.6914 339.883 46.0352C338.383 48.3555 336.098 50.207 333.027 51.5898L344.102 72.5078V73H332.781L323.184 54.2617ZM314.781 45.7188H323.289C325.938 45.7188 327.988 45.0508 329.441 43.7148C330.895 42.3555 331.621 40.4922 331.621 38.125C331.621 35.7109 330.93 33.8125 329.547 32.4297C328.188 31.0469 326.09 30.3555 323.254 30.3555H314.781V45.7188ZM398.945 52.082H378.695V73H368.148V21.8125H401.477V30.3555H378.695V43.5742H398.945V52.082ZM418.809 73H408.262V21.8125H418.809V73ZM466.094 30.3555H450.414V73H439.867V30.3555H424.398V21.8125H466.094V30.3555Z" fill="white"/>
<path d="M0 0H100V50.5V83H72.5H28H0V50.5V0Z" fill="#8F0000"/>
<path d="M65.3672 46.082H45.1172V67H34.5703V15.8125H67.8984V24.3555H45.1172V37.5742H65.3672V46.082Z" fill="white"/>
</svg>
